<svg width="382" height="211" viewBox="0 0 382 211" fill="none" xmlns="http://www.w3.org/2000/svg">
<path d="M17.664 136H11.52V45.12H17.664L52.48 128.576L87.168 45.12H93.44V136H87.296V86.208C87.296 71.36 87.552 63.68 87.936 57.664L55.552 136H49.408L17.024 58.048C17.28 60.608 17.664 71.232 17.664 86.208V136Z" fill="#6988AC"/>
<path d="M75.28 88.752V83.12H138.512V88.752H109.968V174H103.824V88.752H75.28Z" fill="#6988AC"/>
<path d="M127.024 173.936H122.608V127.344H127.024V148.4C129.008 144.688 132.784 142.192 137.968 142.192C146.096 142.192 149.744 147.248 149.744 155.056V174H145.328V156.016C145.328 148.784 141.936 146.224 137.136 146.224C130.48 146.224 127.024 151.152 127.024 157.104V173.936ZM156.37 158.512C156.37 149.04 163.026 142.192 172.114 142.192C181.202 142.192 187.858 149.04 187.858 158.512C187.858 167.92 181.202 174.768 172.114 174.768C163.026 174.768 156.37 167.92 156.37 158.512ZM160.85 158.448C160.85 165.744 165.458 170.8 172.114 170.8C178.706 170.8 183.378 165.744 183.378 158.448C183.378 151.28 178.706 146.16 172.114 146.16C165.458 146.16 160.85 151.28 160.85 158.448ZM199.337 174H194.921V143.024H198.76L199.273 147.44C200.809 144.176 204.265 142.192 208.617 142.192C213.481 142.192 217.129 144.752 218.601 148.784C220.009 144.752 223.785 142.192 228.777 142.192C235.497 142.192 239.913 146.544 239.913 153.712V174H235.625V154.608C235.625 149.296 232.681 146.16 227.944 146.16C222.761 146.16 219.689 150.064 219.689 154.864V174H215.337V154.544C215.337 149.296 212.329 146.224 207.657 146.224C202.473 146.224 199.337 150.064 199.337 154.8V174ZM248.796 187.504V143.024H252.635L253.084 149.296C255.26 144.496 259.612 142.192 264.796 142.192C273.756 142.192 279.132 149.04 279.132 158.384C279.132 167.728 273.948 174.768 264.796 174.768C259.548 174.768 255.388 172.528 253.212 168.048V187.504H248.796ZM253.276 158.512C253.276 165.616 257.244 170.8 264.028 170.8C270.748 170.8 274.652 165.616 274.652 158.512C274.652 151.344 270.748 146.224 264.028 146.224C257.244 146.224 253.276 151.344 253.276 158.512ZM283.547 165.296H287.771C287.771 168.88 290.459 171.12 294.811 171.12C299.611 171.12 302.427 169.072 302.427 165.744C302.427 163.184 301.147 161.712 297.499 160.816L292.187 159.472C286.811 158.128 284.187 155.312 284.187 151.088C284.187 145.648 288.731 142.192 295.387 142.192C301.915 142.192 306.139 145.776 306.331 151.536H302.043C301.915 147.952 299.419 145.84 295.259 145.84C290.907 145.84 288.475 147.696 288.475 151.024C288.475 153.392 290.139 155.056 293.531 155.888L298.843 157.232C304.219 158.576 306.651 161.072 306.651 165.552C306.651 171.12 301.915 174.768 294.875 174.768C287.899 174.768 283.547 171.056 283.547 165.296ZM311.745 158.512C311.745 149.04 318.401 142.192 327.489 142.192C336.577 142.192 343.233 149.04 343.233 158.512C343.233 167.92 336.577 174.768 327.489 174.768C318.401 174.768 311.745 167.92 311.745 158.512ZM316.225 158.448C316.225 165.744 320.833 170.8 327.489 170.8C334.081 170.8 338.753 165.744 338.753 158.448C338.753 151.28 334.081 146.16 327.489 146.16C320.833 146.16 316.225 151.28 316.225 158.448ZM354.712 174H350.296V143.024H354.135L354.776 148.4C356.824 144.432 360.92 142.192 365.4 142.192C373.912 142.192 377.432 147.248 377.432 155.056V174H373.016V156.016C373.016 148.784 369.752 146.224 364.632 146.224C358.296 146.224 354.712 150.832 354.712 157.808V174Z" fill="#6988AC"/>
</svg>
